<svg width="90" height="90" viewBox="0 0 90 90" fill="none" xmlns="http://www.w3.org/2000/svg">
<mask id="mask0_57_2" style="mask-type:alpha" maskUnits="userSpaceOnUse" x="0" y="0" width="90" height="90">
<path d="M0 5C0 2.23858 2.23858 0 5 0H85C87.7614 0 90 2.23858 90 5V85C90 87.7614 87.7614 90 85 90H5C2.23858 90 0 87.7614 0 85V5Z" fill="#023E8A"/>
</mask>
<g mask="url(#mask0_57_2)">
<path d="M0 5C0 2.23858 2.23858 0 5 0H85C87.7614 0 90 2.23858 90 5V85C90 87.7614 87.7614 90 85 90H5C2.23858 90 0 87.7614 0 85V5Z" fill="#023E8A"/>
<circle cx="32.5" cy="51.5" r="42.5" fill="#FE8254"/>
<path d="M15.1191 55.1C16.4663 52.7666 19.8345 52.7666 21.1816 55.1L39.3682 86.6L39.4854 86.8207C40.6086 89.1131 38.9469 91.85 36.3369 91.85H-0.0361328C-2.73041 91.85 -4.41446 88.9333 -3.06738 86.6L15.1191 55.1Z" fill="#0077B6" stroke="#219EBC" stroke-width="3"/>
<path d="M57.1191 36.1C58.4663 33.7666 61.8345 33.7666 63.1816 36.1L94.3584 90.1C95.7056 92.4333 94.0215 95.35 91.3271 95.35H28.9736C26.2793 95.35 24.5952 92.4333 25.9424 90.1L57.1191 36.1Z" fill="#0077B6" stroke="#219EBC" stroke-width="3"/>
</g>
</svg>
